<svg xmlns="http://www.w3.org/2000/svg" xmlns:xlink="http://www.w3.org/1999/xlink" width="27" height="29" viewBox="0 0 27 29">
  <defs>
    <clipPath id="clip-path">
      <rect id="Rectangle_91" data-name="Rectangle 91" width="27" height="29" transform="translate(0.379 -0.094)" fill="#fff"/>
    </clipPath>
  </defs>
  <g id="Groupe_50" data-name="Groupe 50" transform="translate(-0.38 0.094)">
    <g id="Groupe_49" data-name="Groupe 49" transform="translate(0 0)" clip-path="url(#clip-path)">
      <path id="Tracé_1188" data-name="Tracé 1188" d="M14.046,0A14.046,14.046,0,1,0,28.091,14.046,14.046,14.046,0,0,0,14.046,0M9.41,21.72c-1-.011-2-.009-3,0-.16,0-.208-.039-.208-.2q.007-5.341,0-10.682c0-.147.036-.2.192-.2,1.014.006,2.027.009,3.041,0,.195,0,.221.074.221.241q-.007,2.66,0,5.319c0,1.759,0,3.517,0,5.276,0,.2-.048.255-.25.252M7.934,9.109a1.995,1.995,0,1,1,2-2,2.009,2.009,0,0,1-2,2m14.65,12.383c0,.182-.051.229-.229.228q-1.5-.012-3,0c-.176,0-.214-.053-.213-.219q.008-2.769,0-5.539a4.978,4.978,0,0,0-.161-1.375,1.546,1.546,0,0,0-1.7-1.2,1.858,1.858,0,0,0-1.953,1.855,6.923,6.923,0,0,0-.053.866c0,1.8,0,3.591,0,5.387,0,.179-.044.232-.227.23q-1.51-.013-3.021,0c-.161,0-.208-.042-.208-.206q.007-5.332,0-10.664c0-.176.057-.217.224-.216q1.434.011,2.868,0c.176,0,.221.055.218.222-.01.425,0,.85,0,1.275.231-.259.421-.522.658-.746a3.609,3.609,0,0,1,2.6-1.024,6.01,6.01,0,0,1,1.632.2,3.191,3.191,0,0,1,2.265,2.383,9.986,9.986,0,0,1,.3,2.73c0,1.94-.006,3.881,0,5.821" transform="translate(-0.085 0.266)" fill="#fff"/>
    </g>
  </g>
</svg>
