<svg id="emploibenin" xmlns="http://www.w3.org/2000/svg" width="415.736" height="70" viewBox="0 0 415.736 70">
  <g id="Groupe_49" data-name="Groupe 49" transform="translate(342.231 31.439)">
    <path id="Tracé_114" data-name="Tracé 114" d="M635.563,209.31a9.942,9.942,0,0,0-5.751-1.63,7.31,7.31,0,1,0,.1,14.614,11.967,11.967,0,0,0,5.655-1.342l-.432,4.025a13.617,13.617,0,0,1-5.606,1.054c-5.847,0-11.6-4.169-11.6-11.117,0-7,5.749-11.164,11.6-11.164a13.8,13.8,0,0,1,6.851,1.581Z" transform="translate(-617.93 -203.513)" fill="#ffffff"/>
    <path id="Tracé_115" data-name="Tracé 115" d="M654.235,226.173c-6.468,0-11.548-4.648-11.548-11.356,0-6.756,5.079-11.4,11.548-11.4a11.1,11.1,0,0,1,11.5,11.4C665.734,221.525,660.7,226.173,654.235,226.173Zm0-18.831a7.561,7.561,0,1,0,7.091,7.57A7.2,7.2,0,0,0,654.235,207.342Z" transform="translate(-625.197 -203.413)" fill="#ffffff"/>
    <path id="Tracé_116" data-name="Tracé 116" d="M704.217,225.646V211.7c0-2.251-.767-4.552-4.7-4.552-3.785,0-4.887,2.3-4.887,4.552v13.944h-4.36V211.7c0-2.251-.766-4.552-4.7-4.552-3.785,0-4.887,2.3-4.887,4.552v13.944h-4.36V203.94h4.025v2.827h.048c.911-1.917,2.779-3.354,6.373-3.354a7.3,7.3,0,0,1,6.42,3.21,8.674,8.674,0,0,1,7.044-3.21c5.031,0,8.338,3.019,8.338,7.858v14.375Z" transform="translate(-635.073 -203.413)" fill="#ffffff"/>
  </g>
  <g id="Groupe_51" data-name="Groupe 51" transform="translate(48.539)">
    <g id="Groupe_50" data-name="Groupe 50">
      <path id="Tracé_117" data-name="Tracé 117" d="M242.494,221.227V201.083c0-2.827-1.13-5.513-5.725-5.513-4.453,0-6.008,2.686-6.008,5.654v20H222.35V201.083c0-2.827-1.131-5.513-5.726-5.513-4.453,0-6.008,2.686-6.008,5.654v20h-8.411V189.208h7.563l.141,4.312h.071c1.342-3.111,4.311-5.16,9.471-5.16,4.312,0,7.917,1.767,9.471,4.947,1.556-2.827,5.443-4.947,10.179-4.947,7.351,0,11.8,4.241,11.8,11.168v21.7Z" transform="translate(-202.205 -167.555)" fill="#ffffff"/>
      <path id="Tracé_118" data-name="Tracé 118" d="M290.155,222.075c-3.393,0-7.139-1.2-8.412-2.4v17.883h-8.2V189.208h7.563v3.746h.071c1.625-2.615,4.947-4.594,9.825-4.594,7.421,0,15.408,5.8,15.408,16.822C306.412,215.289,299.2,222.075,290.155,222.075Zm-1.2-26.294a8.409,8.409,0,0,0-7.209,3.676v12.511a9.441,9.441,0,0,0,7.209,3.039c5.09,0,9.048-4.029,9.048-9.613C298,199.74,294.043,195.781,288.953,195.781Z" transform="translate(-223.146 -167.555)" fill="#ffffff"/>
      <path id="Tracé_119" data-name="Tracé 119" d="M329.763,215.245c-4.312-.425-8.694-3.18-8.694-10.108v-41.49h8.341v40.43a4.682,4.682,0,0,0,4.312,4.807Z" transform="translate(-237.097 -160.301)" fill="#ffffff"/>
      <path id="Tracé_120" data-name="Tracé 120" d="M353.326,222.117c-9.613,0-17.247-6.857-17.247-16.894,0-10.107,7.634-16.963,17.247-16.963,9.542,0,17.176,6.856,17.176,16.963C370.5,215.26,362.939,222.117,353.326,222.117Zm0-26.436c-4.736,0-8.836,3.958-8.836,9.683,0,5.655,4.1,9.613,8.836,9.613s8.835-3.958,8.835-9.613C362.161,199.64,358.061,195.681,353.326,195.681Z" transform="translate(-241.503 -167.525)" fill="#ffffff"/>
      <path id="Tracé_121" data-name="Tracé 121" d="M390.142,178.121c-1.555,0-4.735-3.181-4.735-4.736s3.18-4.736,4.735-4.736c1.626,0,4.665,3.181,4.665,4.736S391.768,178.121,390.142,178.121Zm-4.312,37.32V183.422h8.552v32.019Z" transform="translate(-255.983 -161.769)" fill="#ffffff"/>
      <path id="Tracé_122" data-name="Tracé 122" d="M417.5,213.487c-6.709,0-12.588-2.412-15.529-4.674v-49.9h8.819v21.107c1.357-1.206,5.352-2.487,8.971-2.487,9.649,0,17.187,7.086,17.187,17.564C436.949,205.723,429.939,213.487,417.5,213.487Zm.981-28.042a10.5,10.5,0,0,0-7.69,3.015v15.83a13.224,13.224,0,0,0,6.256,1.659c6.785,0,10.856-4.221,10.856-10.4C427.9,189.817,423.908,185.445,418.481,185.445Z" transform="translate(-260.845 -158.91)" fill="#ffffff"/>
      <path id="Tracé_123" data-name="Tracé 123" d="M482.962,203.13l-4.1,4.1H461.4c.283,3.322,3.958,7.563,10.39,7.563a16.392,16.392,0,0,0,9.119-2.545l-.849,7.634a21.865,21.865,0,0,1-9.824,2.05c-9.472,0-17.459-6.785-17.459-16.964,0-10.673,7.987-16.893,16.328-16.893,8.835,0,14.065,6.22,14.065,12.511A14.262,14.262,0,0,1,482.962,203.13Zm-13.712-8.412a8.1,8.1,0,0,0-7.634,6.432h13.43c0-.283.071-.495.071-.778A5.853,5.853,0,0,0,469.25,194.719Z" transform="translate(-275.76 -167.471)" fill="#ffffff"/>
      <path id="Tracé_124" data-name="Tracé 124" d="M517.256,221.227V201.083c0-2.827-1.767-5.513-6.079-5.513-4.1,0-6.361,2.686-6.361,5.654v20H496.4V189.208h7.634v4.241h.07c1.344-3.11,4.524-5.089,9.9-5.089,7,0,11.663,4.17,11.663,11.1v21.77Z" transform="translate(-288.565 -167.555)" fill="#ffffff"/>
      <path id="Tracé_125" data-name="Tracé 125" d="M545.064,178.121c-1.555,0-4.735-3.181-4.735-4.736s3.181-4.736,4.735-4.736c1.626,0,4.665,3.181,4.665,4.736S546.69,178.121,545.064,178.121Zm-4.312,37.32V183.422h8.552v32.019Z" transform="translate(-301.459 -161.769)" fill="#ffffff"/>
      <path id="Tracé_126" data-name="Tracé 126" d="M576.986,221.227V201.083c0-2.827-1.767-5.513-6.078-5.513-4.1,0-6.361,2.686-6.361,5.654v20h-8.411V189.208h7.633v4.241h.071c1.343-3.11,4.523-5.089,9.9-5.089,7,0,11.663,4.17,11.663,11.1v21.77Z" transform="translate(-306.099 -167.555)" fill="#ffffff"/>
    </g>
  </g>
  <path id="Tracé_127" data-name="Tracé 127" d="M170.988,219.635a3.568,3.568,0,0,1-.511,5.461,22.262,22.262,0,0,1-28.223-2.523q-.254-.25-.5-.509a3.575,3.575,0,0,1,.648-5.493l1.9-1.209a3.605,3.605,0,0,1,4.485.548l.02.02a12.937,12.937,0,0,0,16.1,1.661,3.54,3.54,0,0,1,4.451.412Z" transform="translate(-135.627 -175.321)" fill="#c70029"/>
  <path id="Tracé_128" data-name="Tracé 128" d="M177.617,189.859a21.45,21.45,0,0,0-.978-3.5,21.932,21.932,0,0,0-2.083-4.186,22.267,22.267,0,0,0-40.65,16.2h43.71a22.29,22.29,0,0,0,0-8.516Zm-34.062,0a12.931,12.931,0,0,1,23.122-2.675,12.744,12.744,0,0,1,1.209,2.431c.031.081.059.161.087.244Z" transform="translate(-133.497 -162.708)" fill="#ffffff"/>
  <circle id="Ellipse_13" data-name="Ellipse 13" cx="4.738" cy="4.738" r="4.738" transform="translate(329.761 44.197)" fill="#c70029"/>
</svg>
