<svg id="Groupe_205" data-name="Groupe 205" xmlns="http://www.w3.org/2000/svg" xmlns:xlink="http://www.w3.org/1999/xlink" width="32.74" height="32.742" viewBox="0 0 32.74 32.742">
  <defs>
    <clipPath id="clip-path">
      <rect id="Rectangle_26" data-name="Rectangle 26" width="32.74" height="32.742" fill="#00517c"/>
    </clipPath>
  </defs>
  <g id="Groupe_20" data-name="Groupe 20" clip-path="url(#clip-path)">
    <path id="Tracé_214" data-name="Tracé 214" d="M32.74,28.458c-.053-.216-.1-.434-.162-.646a4.286,4.286,0,0,0-1.036-1.7,64.537,64.537,0,0,0-7.03-6.077c-.648-.519-1.3-1.028-1.971-1.555.047-.092.085-.176.13-.256A12.145,12.145,0,1,0,.185,10.088a11.952,11.952,0,0,0,1.474,8.188,1.279,1.279,0,1,0,2.216-1.269A10.014,10.014,0,0,1,2.708,13.85a9.592,9.592,0,1,1,10.945,7.775,9.762,9.762,0,0,1-5.579-.783,1.268,1.268,0,0,0-1.834.847,1.247,1.247,0,0,0,.667,1.419,11.586,11.586,0,0,0,3.972,1.126,12.049,12.049,0,0,0,7.508-1.658,1.125,1.125,0,0,1,.116-.049l.269.336c1.717,2.146,3.407,4.315,5.164,6.428A32.657,32.657,0,0,0,26.4,31.8a3.451,3.451,0,0,0,1.847.882,2.045,2.045,0,0,1,.211.061h.9a1.512,1.512,0,0,1,.179-.057,3.753,3.753,0,0,0,2.988-2.509c.1-.265.149-.548.222-.823v-.9M20.968,20.495c1.232.976,2.424,1.923,3.619,2.868a45.875,45.875,0,0,1,5.184,4.6,1.292,1.292,0,0,1,.031,1.859,1.27,1.27,0,0,1-1.833-.042c-.725-.721-1.489-1.413-2.137-2.2-1.773-2.155-3.494-4.352-5.235-6.533a.23.23,0,0,1-.036-.069l.407-.48" transform="translate(0 0)" fill="#00517c"/>
    <path id="Tracé_215" data-name="Tracé 215" d="M232.4,59.927a7,7,0,0,0-6.192,4.15,1.276,1.276,0,1,0,2.3,1.09,4.457,4.457,0,0,1,3.2-2.586,4.9,4.9,0,0,1,.855-.094,1.282,1.282,0,1,0-.046-2.561H232.4" transform="translate(-220.468 -54.808)" fill="#00517c"/>
  </g>
</svg>
